<?xml version="1.0" encoding="UTF-8"?>
<svg version="1.1" xmlns="http://www.w3.org/2000/svg" width="220" height="220">
<path d="M0 0 C0.75655884 -0.0010675 1.51311768 -0.00213501 2.29260254 -0.00323486 C14.37510967 0.02138938 25.25571085 1.07355952 36.625 5.4375 C37.26228027 5.66743652 37.89956055 5.89737305 38.55615234 6.13427734 C50.40174581 10.45148745 60.19386766 17.24925737 69.8125 25.25 C70.37783447 25.71817139 70.94316895 26.18634277 71.52563477 26.66870117 C74.11817608 28.88544218 75.52600911 30.14052734 76.625 33.4375 C77.285 33.4375 77.945 33.4375 78.625 33.4375 C88.60058567 44.73764477 95.81041964 58.2286165 100.625 72.4375 C100.85960937 73.12585938 101.09421875 73.81421875 101.3359375 74.5234375 C104.00878584 83.08429957 103.78255771 91.9231942 103.75537109 100.79125977 C103.7500212 102.86677384 103.75533635 104.94207071 103.76171875 107.01757812 C103.7719128 118.44544589 102.9372134 127.64206329 98.9375 138.375 C98.61072266 139.29990234 98.28394531 140.22480469 97.94726562 141.17773438 C90.6377298 161.12172601 75.67468576 179.23615892 57.625 190.4375 C56.71363281 191.02015625 55.80226562 191.6028125 54.86328125 192.203125 C37.51258619 202.85909259 20.36378572 206.61256852 0.1875 206.625 C-0.85470703 206.63724609 -1.89691406 206.64949219 -2.97070312 206.66210938 C-26.41363146 206.70571061 -47.26103017 198.0420569 -65.375 183.4375 C-66.31214844 182.72980469 -67.24929687 182.02210938 -68.21484375 181.29296875 C-69.28412109 180.37451172 -69.28412109 180.37451172 -70.375 179.4375 C-70.375 178.7775 -70.375 178.1175 -70.375 177.4375 C-71.035 177.4375 -71.695 177.4375 -72.375 177.4375 C-72.375 176.7775 -72.375 176.1175 -72.375 175.4375 C-73.035 175.4375 -73.695 175.4375 -74.375 175.4375 C-74.375 174.7775 -74.375 174.1175 -74.375 173.4375 C-75.035 173.4375 -75.695 173.4375 -76.375 173.4375 C-93.45222994 153.42781644 -102.82120185 129.26124855 -102.625 102.9375 C-102.63273437 101.89980469 -102.64046875 100.86210938 -102.6484375 99.79296875 C-102.62144011 88.95351778 -100.93919075 78.83691585 -97.3125 68.625 C-97.01303467 67.77405762 -96.71356934 66.92311523 -96.4050293 66.04638672 C-93.38539976 57.85013966 -89.21034286 50.67710762 -84.375 43.4375 C-84.01583496 42.86225586 -83.65666992 42.28701172 -83.28662109 41.69433594 C-82.36809886 40.24117686 -81.37720646 38.83425932 -80.375 37.4375 C-79.715 37.4375 -79.055 37.4375 -78.375 37.4375 C-78.1378125 36.87546875 -77.900625 36.3134375 -77.65625 35.734375 C-76.08552303 32.91855958 -74.16028536 30.95794584 -71.875 28.6875 C-71.0809375 27.88828125 -70.286875 27.0890625 -69.46875 26.265625 C-67.375 24.4375 -67.375 24.4375 -65.375 24.4375 C-65.375 23.7775 -65.375 23.1175 -65.375 22.4375 C-63.6953125 21.1484375 -63.6953125 21.1484375 -61.5 19.8125 C-60.78070313 19.36648437 -60.06140625 18.92046875 -59.3203125 18.4609375 C-57.375 17.4375 -57.375 17.4375 -55.375 17.4375 C-55.375 16.7775 -55.375 16.1175 -55.375 15.4375 C-45.65187088 9.87945598 -36.19843079 5.44012919 -25.375 2.4375 C-24.7577002 2.25276123 -24.14040039 2.06802246 -23.50439453 1.87768555 C-15.81439657 -0.16791615 -7.89986756 -0.00235766 0 0 Z " fill="#40946E" transform="translate(109.375,6.5625)"/>
<path d="M0 0 C9.54567021 5.68039198 15.65254486 12.18635841 19.875 22.390625 C21.26684309 25.61892772 22.84663257 28.74189612 24.4375 31.875 C27.8797639 38.69060901 31.27473082 45.54685238 34.03515625 52.671875 C35.05147949 55.12421773 36.40399338 56.89617309 38 59 C38 59.66 38 60.32 38 61 C42.98260187 60.78907041 42.98260187 60.78907041 46.9375 58.0625 C49.69205173 53.97240803 51.70061902 49.66342816 53.75 45.1875 C54.36681641 43.86202148 54.36681641 43.86202148 54.99609375 42.50976562 C56.00353459 40.34259637 57.00460698 38.17272247 58 36 C58.66 36 59.32 36 60 36 C60.66 33.03 61.32 30.06 62 27 C62.66 27 63.32 27 64 27 C65.92113757 17.67391219 65.92113757 17.67391219 63.125 9 C59.62142946 5.70252184 56.93757114 5.58145024 52.265625 5.671875 C49.73309703 5.88655728 49.73309703 5.88655728 46.9375 7.875 C44.18789312 12.30984981 44.2574363 15.91034465 45 21 C45.8234262 23.77906342 46.87161834 26.32009356 48 29 C48 29.99 48 30.98 48 32 C48.66 32 49.32 32 50 32 C51.49356111 34.37212647 52.04005633 35.60945078 51.75 38.4375 C50.98785409 41.04149851 50.06844502 43.50696162 49 46 C48.34 46 47.68 46 47 46 C46.505 44.02 46.505 44.02 46 42 C45.34 42 44.68 42 44 42 C43.04573441 39.61433602 42.09432859 37.2280379 41.15625 34.8359375 C40.43609987 33.06962332 39.67208615 31.31980032 38.84375 29.6015625 C35.58056837 22.58572201 34.64282362 15.66030426 36 8 C38.37093855 3.53665722 41.69496715 0.97118723 45.6875 -2 C52.3562544 -4.01320888 59.67941428 -4.11183862 66 -1 C71.53216907 4.00529583 74.65448599 7.68107489 75.25 15.125 C74.80137163 22.0787397 72.78480228 28.15076011 69 34 C68.30420546 36.19130534 68.30420546 36.19130534 68 38 C67.34 38 66.68 38 66 38 C65.814375 39.36125 65.814375 39.36125 65.625 40.75 C65.07890323 43.58970323 64.42736197 45.52590591 63 48 C62.34 48 61.68 48 61 48 C60.72978027 48.87019775 60.45956055 49.74039551 60.18115234 50.63696289 C59.04257822 53.87876912 57.69396807 56.76779015 56.1015625 59.80859375 C55.53953125 60.88560547 54.9775 61.96261719 54.3984375 63.07226562 C53.81320313 64.18279297 53.22796875 65.29332031 52.625 66.4375 C51.75875 68.09749023 51.75875 68.09749023 50.875 69.79101562 C41.3047629 88.0684205 41.3047629 88.0684205 33.625 92.3125 C28.96353718 93.53335931 24.80008694 93.75352477 20.3125 91.875 C12.51133655 85.54973234 9.18703062 76.58562167 5.25 67.625 C4.90783447 66.85188477 4.56566895 66.07876953 4.21313477 65.28222656 C2.45040016 61.29845442 0.69752062 57.31043591 -1.05078125 53.3203125 C-4.66835458 45.09004897 -8.45184834 37.00530315 -12.53515625 28.99609375 C-13.75676219 26.4975024 -14.81070444 24.05098039 -15.75 21.4375 C-16.85241049 18.06608713 -16.85241049 18.06608713 -18.5 15.5 C-20.17617511 12.70637482 -21.21242481 9.91771053 -22.3046875 6.859375 C-23.00061909 4.8885005 -23.00061909 4.8885005 -24.1875 2.6875 C-25 1 -25 1 -25 -2 C-17.02265516 -4.65911495 -7.5521041 -3.51178713 0 0 Z " fill="#EEF8F3" transform="translate(55,70)"/>
<path d="M0 0 C1.11761719 -0.00257812 2.23523438 -0.00515625 3.38671875 -0.0078125 C6.3125 0.125 6.3125 0.125 9.3125 1.125 C8.02389298 5.1805316 6.53273101 9.01385021 4.73828125 12.87109375 C4.2388501 13.94866943 3.73941895 15.02624512 3.22485352 16.13647461 C2.69690186 17.26706299 2.1689502 18.39765137 1.625 19.5625 C1.08480225 20.72595947 0.54460449 21.88941895 -0.01196289 23.08813477 C-1.56704301 26.43536838 -3.12635658 29.78059075 -4.6875 33.125 C-5.07228516 33.95 -5.45707031 34.775 -5.85351562 35.625 C-7.3122336 38.75203814 -8.77266724 41.87826417 -10.234375 45.00390625 C-13.067606 51.08925993 -15.83639284 57.20238644 -18.5546875 63.33984375 C-20.70710115 68.18189583 -22.89345744 73.00639712 -25.125 77.8125 C-25.49431641 78.62783203 -25.86363281 79.44316406 -26.24414062 80.28320312 C-28.83906207 85.84631895 -31.46323631 90.88484892 -36.6328125 94.4765625 C-42.2892509 96.26167424 -48.65671055 95.98996588 -54.0625 93.6875 C-57.6447074 90.19058325 -60.14099835 86.41692988 -62.6875 82.125 C-63.26371094 81.18269531 -63.83992188 80.24039063 -64.43359375 79.26953125 C-68.75768695 71.86963966 -68.75768695 71.86963966 -68.4375 68.47265625 C-67.54872997 65.6906209 -66.38407214 63.50020099 -64.6875 61.125 C-64.0275 61.125 -63.3675 61.125 -62.6875 61.125 C-62.6875 61.785 -62.6875 62.445 -62.6875 63.125 C-60.0475 63.125 -57.4075 63.125 -54.6875 63.125 C-53.57673112 61.12865922 -52.47422141 59.12772223 -51.375 57.125 C-50.76011719 56.01125 -50.14523438 54.8975 -49.51171875 53.75 C-47.91679759 50.71489193 -46.72223594 47.60487453 -45.55639648 44.37890625 C-43.74658612 39.68428156 -41.53390639 35.16665573 -39.375 30.625 C-38.91416016 29.63113281 -38.45332031 28.63726562 -37.97851562 27.61328125 C-34.39526379 20.06801939 -30.5356443 12.60894796 -23.5 7.75 C-22.84644531 7.28851563 -22.19289062 6.82703125 -21.51953125 6.3515625 C-16.70023885 3.125 -16.70023885 3.125 -12.6875 3.125 C-12.6875 2.465 -12.6875 1.805 -12.6875 1.125 C-8.40673041 0.30899854 -4.35607067 -0.01011863 0 0 Z " fill="#EEF8F3" transform="translate(181.6875,66.875)"/>
<path d="M0 0 C0 1.32 0 2.64 0 4 C-0.66 4 -1.32 4 -2 4 C-2.17015625 4.556875 -2.3403125 5.11375 -2.515625 5.6875 C-3.98349997 10.30974459 -5.65461146 14.60239649 -7.9375 18.8828125 C-9.08670798 21.17277841 -10.08127313 23.51319984 -11.08056641 25.87158203 C-13.03968563 30.40679218 -15.12598777 34.88567378 -17.1875 39.375 C-17.6721875 40.43267578 -18.156875 41.49035156 -18.65625 42.58007812 C-21.86538581 49.56989769 -25.10949295 56.54204782 -28.44995117 63.47021484 C-30.00939968 66.73905064 -31.38076672 69.99170208 -32.59375 73.40625 C-34 77 -34 77 -36 78 C-39.10873629 78.54713759 -41.90212585 78.64560739 -45 78 C-48.69074435 75.17172433 -51.22160275 71.2681534 -53 67 C-53 65.68 -53 64.36 -53 63 C-52.46890625 62.78085938 -51.9378125 62.56171875 -51.390625 62.3359375 C-43.8872998 58.96765648 -41.32812619 54.0517416 -38.18359375 46.72265625 C-36.48192542 42.80825748 -34.6700518 38.94647371 -32.84619141 35.08789062 C-31.19580508 31.59091214 -29.59111699 28.08215382 -28.05078125 24.53515625 C-23.7094835 14.67917917 -19.25577728 5.84300594 -9 1 C-5.96102732 -0.04464686 -3.20065533 -0.08890709 0 0 Z " fill="#459672" transform="translate(178,76)"/>
<path d="M0 0 C6.47232024 -1.0219453 10.95018631 2.39299022 16 6 C19.36286021 8.81157165 22.54046658 11.76735308 24 16 C24 16.99 24 17.98 24 19 C24.66 19 25.32 19 26 19 C26.391875 20.11375 26.78375 21.2275 27.1875 22.375 C28.74992293 26.56111427 30.71270267 30.46207662 32.75 34.43359375 C33.95177416 36.90098632 34.96224939 39.37340361 35.9375 41.9375 C38.76422136 49.18168874 41.99354785 56.85493827 48 62 C51.14481791 62.80315654 51.14481791 62.80315654 54 63 C53.36532318 66.43195616 52.02411502 68.75691741 50.0625 71.625 C49.53785156 72.40101563 49.01320312 73.17703125 48.47265625 73.9765625 C47 76 47 76 45 78 C40.732721 78.31609474 37.61566731 78.36412568 34 76 C32.78320312 74.07983398 32.78320312 74.07983398 31.78125 71.74609375 C31.40613281 70.89080078 31.03101562 70.03550781 30.64453125 69.15429688 C30.26683594 68.25775391 29.88914062 67.36121094 29.5 66.4375 C28.93345703 65.13329102 28.93345703 65.13329102 28.35546875 63.80273438 C27.59895597 62.05963533 26.84690109 60.31459461 26.09936523 58.56762695 C22.61864422 50.33028092 22.61864422 50.33028092 18.4375 42.4375 C16.5737431 39.16044104 15.19165425 35.93430353 13.9453125 32.3671875 C12.17281101 27.92860938 9.8984063 23.71421755 7.71875 19.46484375 C5.23078271 14.44932788 3.03413776 9.39137877 1.3125 4.0625 C1.06113281 3.29035156 0.80976562 2.51820312 0.55078125 1.72265625 C0.36902344 1.15417969 0.18726563 0.58570312 0 0 Z " fill="#459772" transform="translate(42,76)"/>
<path d="M0 0 C3.0609697 1.74092651 5.40003304 3.80006608 7 7 C7.46244252 12.37723857 7.06810447 16.95899535 5 22 C4.34 22 3.68 22 3 22 C2.855625 22.928125 2.71125 23.85625 2.5625 24.8125 C2 28 2 28 1 31 C0.34 31 -0.32 31 -1 31 C-1.268125 31.9075 -1.53625 32.815 -1.8125 33.75 C-2.89576294 36.71471963 -3.98359457 38.6169754 -6 41 C-6.99 40.67 -7.98 40.34 -9 40 C-8.91621094 39.39671875 -8.83242187 38.7934375 -8.74609375 38.171875 C-8.64425781 37.37265625 -8.54242188 36.5734375 -8.4375 35.75 C-8.33308594 34.96109375 -8.22867188 34.1721875 -8.12109375 33.359375 C-7.99972651 30.99467126 -8.30366743 29.2488963 -9 27 C-9.66 27 -10.32 27 -11 27 C-13.88921144 20.21551243 -16.67596803 13.44441612 -15 6 C-11.79692664 -0.05562171 -6.46293682 -1.58111133 0 0 Z " fill="#42956F" transform="translate(114,75)"/>
<path d="M0 0 C-0.078125 1.734375 -0.078125 1.734375 -1 4 C-3.244344 5.60981742 -5.34477977 6.93540594 -7.75 8.25 C-8.68199219 8.79527344 -8.68199219 8.79527344 -9.6328125 9.3515625 C-13.21700382 11.36294412 -15.87470726 12.47236176 -20 12 C-20 11.34 -20 10.68 -20 10 C-19.01 10 -18.02 10 -17 10 C-17 9.34 -17 8.68 -17 8 C-13.63316085 5.56839395 -12.26649636 5 -8 5 C-8 4.34 -8 3.68 -8 3 C-5.04518508 0.25624329 -4.22528092 0 0 0 Z " fill="#53806B" transform="translate(170,192)"/>
<path d="M0 0 C1.76953125 1.53515625 1.76953125 1.53515625 3 3 C2.01 3.495 2.01 3.495 1 4 C1 3.34 1 2.68 1 2 C-3.29917163 2.29146926 -6.15229884 2.53105893 -9.9375 4.625 C-12.74739975 7.86064214 -13 9.72030107 -13 14 C-12.32789914 16.36835543 -11.53159313 18.61083219 -10.59375 20.88671875 C-9.90931461 23.3227684 -10.18907749 24.63658767 -11 27 C-13.88921144 20.21551243 -16.67596803 13.44441612 -15 6 C-11.83489628 0.0161624 -6.42817697 -1.57949491 0 0 Z " fill="#70A78F" transform="translate(114,75)"/>
<path d="M0 0 C0 0.33 0 0.66 0 1 C-5.12352998 2.69914463 -9.2221798 3.19589639 -14.68359375 2.9765625 C-15.73414696 2.93902359 -15.73414696 2.93902359 -16.80592346 2.90072632 C-19.01700184 2.81932708 -21.22707633 2.72243712 -23.4375 2.625 C-24.94722618 2.56667814 -26.45699215 2.5093768 -27.96679688 2.453125 C-31.64506515 2.31387106 -35.3226003 2.1607294 -39 2 C-39 1.67 -39 1.34 -39 1 C-38.0713916 0.97494385 -37.1427832 0.9498877 -36.18603516 0.92407227 C-32.74564196 0.82902068 -29.30542287 0.72978293 -25.86523438 0.62768555 C-24.37537359 0.58433411 -22.88546305 0.54265916 -21.39550781 0.50268555 C-19.25570673 0.44498785 -17.11615615 0.38129245 -14.9765625 0.31640625 C-13.68830566 0.27974854 -12.40004883 0.24309082 -11.07275391 0.20532227 C-2.03664122 -0.39847328 -2.03664122 -0.39847328 0 0 Z " fill="#4A7D66" transform="translate(140,209)"/>
<path d="M0 0 C-2.84667469 1.52430636 -5.57678183 2.52343464 -8.6875 3.375 C-12.98728846 4.61984275 -16.95380223 6.21048151 -20.9921875 8.1328125 C-22.97939095 8.99109882 -24.88930709 9.53621546 -27 10 C-27 9.34 -27 8.68 -27 8 C-24.48159568 6.86928786 -21.96051069 5.74535012 -19.4375 4.625 C-18.73302734 4.30789062 -18.02855469 3.99078125 -17.30273438 3.6640625 C-4.73720425 -1.8948817 -4.73720425 -1.8948817 0 0 Z " fill="#769D8A" transform="translate(88,10)"/>
<path d="M0 0 C0.59296875 0.20238281 1.1859375 0.40476562 1.796875 0.61328125 C1.20519531 1 0.61351563 1.38671875 0.00390625 1.78515625 C-5.27467355 5.2640245 -10.2792596 8.68941585 -14.765625 13.17578125 C-16.82007431 15.23023056 -18.83428666 16.94632094 -21.203125 18.61328125 C-19.67093815 14.98266458 -17.4848106 12.62690395 -14.703125 9.86328125 C-13.9090625 9.0640625 -13.115 8.26484375 -12.296875 7.44140625 C-10.203125 5.61328125 -10.203125 5.61328125 -8.203125 5.61328125 C-8.203125 4.95328125 -8.203125 4.29328125 -8.203125 3.61328125 C-2.99894173 -0.52640999 -2.99894173 -0.52640999 0 0 Z " fill="#779888" transform="translate(52.203125,25.38671875)"/>
<path d="M0 0 C2.64 0.33 5.28 0.66 8 1 C8 2.65 8 4.3 8 6 C10.97 6.495 10.97 6.495 14 7 C14 7.33 14 7.66 14 8 C7.89357521 8.78287497 3.99540421 6.10825151 -1 3 C-0.67 2.01 -0.34 1.02 0 0 Z " fill="#659580" transform="translate(57,196)"/>
<path d="M0 0 C0 0.66 0 1.32 0 2 C-0.99 2.33 -1.98 2.66 -3 3 C-4.81346266 4.8644281 -4.81346266 4.8644281 -6.5625 7.0625 C-7.66501188 8.41159519 -8.80310688 9.73388897 -10 11 C-10.66 11 -11.32 11 -12 11 C-12 11.66 -12 12.32 -12 13 C-12.66 13 -13.32 13 -14 13 C-12.63924722 7.3868948 -8.37378806 4.38968575 -4 1 C-2 0 -2 0 0 0 Z " fill="#CEE9DD" transform="translate(164,72)"/>
<path d="M0 0 C7.73752038 -0.8759457 12.50320831 1.98727572 19 6 C19 6.99 19 7.98 19 9 C15.98094744 7.9021627 13.40116847 6.64513687 10.625 5 C7.1765982 2.96885345 3.87900514 1.94996044 0 1 C0 0.67 0 0.34 0 0 Z " fill="#5F9E83" transform="translate(45,67)"/>
<path d="M0 0 C1.19935725 3.47651527 0.80128318 5.69868278 -0.25 9.1875 C-0.62898437 10.50814453 -0.62898437 10.50814453 -1.015625 11.85546875 C-1.34046875 12.56316406 -1.6653125 13.27085938 -2 14 C-2.99 14.33 -3.98 14.66 -5 15 C-5 15.66 -5 16.32 -5 17 C-5.66 17 -6.32 17 -7 17 C-5.24009216 11.08030998 -2.60305395 5.58365008 0 0 Z " fill="#6EAA8F" transform="translate(152,96)"/>
<path d="M0 0 C0.33 0 0.66 0 1 0 C1 1.98 1 3.96 1 6 C0.01 6.33 -0.98 6.66 -2 7 C-2 7.99 -2 8.98 -2 10 C-2.66 10 -3.32 10 -4 10 C-4.061875 10.78375 -4.12375 11.5675 -4.1875 12.375 C-4.5896875 13.674375 -4.5896875 13.674375 -5 15 C-7.5625 16.3125 -7.5625 16.3125 -10 17 C-9.34 15.68 -8.68 14.36 -8 13 C-7.34 13 -6.68 13 -6 13 C-5.7525 12.154375 -5.505 11.30875 -5.25 10.4375 C-3.86026373 6.61572526 -2.08879162 3.48131937 0 0 Z " fill="#72AA91" transform="translate(103,143)"/>
<path d="M0 0 C1 3 1 3 0.00390625 5.26171875 C-0.47175781 6.06222656 -0.94742188 6.86273438 -1.4375 7.6875 C-2.14712891 8.89986328 -2.14712891 8.89986328 -2.87109375 10.13671875 C-3.24363281 10.75160156 -3.61617187 11.36648437 -4 12 C-4.99 12 -5.98 12 -7 12 C-6.67 10.02 -6.34 8.04 -6 6 C-5.34 6 -4.68 6 -4 6 C-4 5.01 -4 4.02 -4 3 C-2.68 2.67 -1.36 2.34 0 2 C0 1.34 0 0.68 0 0 Z " fill="#49715F" transform="translate(203,153)"/>
<path d="M0 0 C0.33 0.66 0.66 1.32 1 2 C0.525625 3.11375 0.05125 4.2275 -0.4375 5.375 C-2.64437671 10.8119417 -2.25981006 16.22644309 -2 22 C-4.42136226 18.36795662 -4.32929639 16.44856165 -4.375 12.125 C-4.40335937 10.91070312 -4.43171875 9.69640625 -4.4609375 8.4453125 C-3.92905726 4.46973306 -2.74347442 2.85191214 0 0 Z " fill="#CAE6DA" transform="translate(95,73)"/>
<path d="M0 0 C0.66 0 1.32 0 2 0 C2.0270043 1.45823212 2.04639787 2.91660675 2.0625 4.375 C2.07410156 5.18710938 2.08570313 5.99921875 2.09765625 6.8359375 C2 9 2 9 1 11 C0.34 11 -0.32 11 -1 11 C-2.0257259 6.58937864 -2.03684712 4.07369424 0 0 Z " fill="#47725F" transform="translate(210,125)"/>
<path d="M0 0 C0.66 0 1.32 0 2 0 C2.103125 0.639375 2.20625 1.27875 2.3125 1.9375 C2.539375 2.618125 2.76625 3.29875 3 4 C3.99 4.33 4.98 4.66 6 5 C5.01 6.98 4.02 8.96 3 11 C1.68 10.67 0.36 10.34 -1 10 C-0.67 6.7 -0.34 3.4 0 0 Z " fill="#599D7F" transform="translate(106,105)"/>
<path d="M0 0 C1.63001953 0.01353516 1.63001953 0.01353516 3.29296875 0.02734375 C4.12441406 0.03894531 4.95585938 0.05054687 5.8125 0.0625 C5.8125 0.3925 5.8125 0.7225 5.8125 1.0625 C2.1825 1.3925 -1.4475 1.7225 -5.1875 2.0625 C-5.1875 5.0325 -5.1875 8.0025 -5.1875 11.0625 C-8.02124881 7.85913178 -8.7080537 5.28162747 -9.1875 1.0625 C-5.90230525 -0.03256492 -3.45086585 -0.03710608 0 0 Z " fill="#D2ECE1" transform="translate(39.1875,66.9375)"/>
<path d="M0 0 C0.33 0 0.66 0 1 0 C2.86783046 5.48675196 3.2358396 10.22192976 3 16 C2.34 16 1.68 16 1 16 C0.93941406 15.39671875 0.87882813 14.7934375 0.81640625 14.171875 C0.69072266 12.97304687 0.69072266 12.97304687 0.5625 11.75 C0.48128906 10.96109375 0.40007812 10.1721875 0.31640625 9.359375 C0.05958718 7.01956386 0.05958718 7.01956386 -0.59765625 4.890625 C-1 3 -1 3 0 0 Z " fill="#4C6A5E" transform="translate(209,79)"/>
<path d="M0 0 C5.28 0.33 10.56 0.66 16 1 C16 1.66 16 2.32 16 3 C10.22192976 3.2358396 5.48675196 2.86783046 0 1 C0 0.67 0 0.34 0 0 Z " fill="#517162" transform="translate(81,209)"/>
<path d="M0 0 C0.66 0.33 1.32 0.66 2 1 C1.071875 2.1446875 1.071875 2.1446875 0.125 3.3125 C-2.05597052 5.99625809 -2.05597052 5.99625809 -4 9 C-4.99 9 -5.98 9 -7 9 C-7 9.99 -7 10.98 -7 12 C-7.66 12 -8.32 12 -9 12 C-7.54718935 6.67302761 -3.91888622 3.63597198 0 0 Z " fill="#6FAA90" transform="translate(164,80)"/>
<path d="M0 0 C0.66 0 1.32 0 2 0 C2 0.66 2 1.32 2 2 C2.66 2 3.32 2 4 2 C4.53229326 3.26607607 5.05044544 4.53810412 5.5625 5.8125 C5.85253906 6.52019531 6.14257812 7.22789062 6.44140625 7.95703125 C7 10 7 10 6 13 C4.99759911 11.02204824 3.99813957 9.04260558 3 7.0625 C2.1646875 5.40927734 2.1646875 5.40927734 1.3125 3.72265625 C0 1 0 1 0 0 Z " fill="#6F9586" transform="translate(14,148)"/>
<path d="M0 0 C1.10844919 3.32534757 0.84454356 5.62182575 0 9 C-0.66 9 -1.32 9 -2 9 C-1.67 10.32 -1.34 11.64 -1 13 C-2.32 13.99 -3.64 14.98 -5 16 C-4.41752804 11.22372995 -2.979746 7.37193909 -1 3 C-0.67 2.01 -0.34 1.02 0 0 Z " fill="#6BAA8E" transform="translate(128,92)"/>
<path d="M0 0 C5.41538462 -0.36923077 5.41538462 -0.36923077 8.375 1.5 C8.91125 1.995 9.4475 2.49 10 3 C7.69 2.67 5.38 2.34 3 2 C3.33 4.31 3.66 6.62 4 9 C1.3144406 6.3144406 0.93950026 3.62378672 0 0 Z " fill="#6CA38B" transform="translate(42,76)"/>
<path d="M0 0 C3 1 3 1 3.984375 2.92578125 C4.23703125 3.71339844 4.4896875 4.50101562 4.75 5.3125 C5.01296875 6.09238281 5.2759375 6.87226562 5.546875 7.67578125 C6.03298902 10.16921091 5.80665429 11.6181897 5 14 C4.15675328 12.421924 3.32576082 10.8372958 2.5 9.25 C2.0359375 8.36828125 1.571875 7.4865625 1.09375 6.578125 C0 4 0 4 0 0 Z " fill="#599D7E" transform="translate(48,88)"/>
<path d="M0 0 C1.32 0 2.64 0 4 0 C3.8125 1.875 3.8125 1.875 3 4 C0.4375 5.25 0.4375 5.25 -2 6 C-1.125 1.125 -1.125 1.125 0 0 Z " fill="#568970" transform="translate(166,192)"/>
<path d="M0 0 C0.99 0 1.98 0 3 0 C2.45773019 3.79588866 0.79872437 5.47211993 -2 8 C-2.125 5.125 -2.125 5.125 -2 2 C-1.34 1.34 -0.68 0.68 0 0 Z " fill="#4F7665" transform="translate(193,166)"/>
<path d="M0 0 C2 2 2 2 2.125 4.625 C2.08375 5.40875 2.0425 6.1925 2 7 C2.66 7 3.32 7 4 7 C4 7.99 4 8.98 4 10 C3.34 10 2.68 10 2 10 C2 9.34 2 8.68 2 8 C1.34 8 0.68 8 0 8 C-1.125 6.25 -1.125 6.25 -2 4 C-1.125 1.75 -1.125 1.75 0 0 Z " fill="#4F8469" transform="translate(33,172)"/>
<path d="M0 0 C2.0625 0.4375 2.0625 0.4375 4 1 C3.01 1 2.02 1 1 1 C1.99 3.97 2.98 6.94 4 10 C2.68 9.34 1.36 8.68 0 8 C-0.8125 4.4375 -0.8125 4.4375 -1 1 C-0.67 0.67 -0.34 0.34 0 0 Z " fill="#6BA58B" transform="translate(29,67)"/>
<path d="M0 0 C-0.7734375 0.37125 -0.7734375 0.37125 -1.5625 0.75 C-4.77184151 2.39581616 -7.87585664 4.1976096 -11 6 C-10.75 4.125 -10.75 4.125 -10 2 C-6.82026536 -0.35535899 -3.84875379 -0.17494335 0 0 Z " fill="#5B9B7E" transform="translate(169,69)"/>
<path d="M0 0 C1 3 1 3 0.0625 5.1875 C-0.4634375 6.0846875 -0.4634375 6.0846875 -1 7 C-1.66 7 -2.32 7 -3 7 C-3 8.32 -3 9.64 -3 11 C-3.99 11 -4.98 11 -6 11 C-4.54955729 6.89041233 -2.48889248 3.56741255 0 0 Z " fill="#779C8C" transform="translate(29,44)"/>
<path d="M0 0 C0.66 0 1.32 0 2 0 C2 1.65 2 3.3 2 5 C3.32 5 4.64 5 6 5 C6 6.98 6 8.96 6 11 C1.9957657 7.50912907 0.37328935 5.35048061 0 0 Z " fill="#65A085" transform="translate(87,118)"/>
<path d="M0 0 C1.25 1.5625 1.25 1.5625 2 4 C0.93237266 6.57001015 -0.46544943 8.6530403 -2 11 C-2.66 11 -3.32 11 -4 11 C-2.95902388 7.13351728 -1.96301592 3.50538557 0 0 Z " fill="#6FA88F" transform="translate(173,106)"/>
<path d="M0 0 C0.66 1.32 1.32 2.64 2 4 C0.7260411 6.03833424 -0.61061923 8.03852126 -2 10 C-2.66 10 -3.32 10 -4 10 C-2.8905928 6.51329166 -1.73662334 3.22515763 0 0 Z " fill="#63A085" transform="translate(190,70)"/>
<path d="M0 0 C2.64 0 5.28 0 8 0 C8 0.66 8 1.32 8 2 C8.66 2.33 9.32 2.66 10 3 C8.5199159 2.88637738 7.04089926 2.75877092 5.5625 2.625 C4.73878906 2.55539063 3.91507812 2.48578125 3.06640625 2.4140625 C2.38449219 2.27742187 1.70257813 2.14078125 1 2 C0.67 1.34 0.34 0.68 0 0 Z " fill="#6B9582" transform="translate(74,206)"/>
<path d="M0 0 C1.60080151 4.00200378 0.29279692 7.04556236 -1 11 C-1.99 11 -2.98 11 -4 11 C-3.52269162 9.5410574 -3.04308958 8.08286504 -2.5625 6.625 C-2.29566406 5.81289062 -2.02882812 5.00078125 -1.75390625 4.1640625 C-1 2 -1 2 0 0 Z " fill="#6FA88E" transform="translate(168,117)"/>
<path d="M0 0 C2 1 2 1 3.125 4.0625 C3.41375 5.031875 3.7025 6.00125 4 7 C3.01 7.33 2.02 7.66 1 8 C0 7 0 7 -0.0625 3.4375 C-0.041875 2.303125 -0.02125 1.16875 0 0 Z " fill="#D1EBE1" transform="translate(80,105)"/>
<path d="M0 0 C0.66 0.33 1.32 0.66 2 1 C1.54917531 2.46067199 1.08906463 3.91848032 0.625 5.375 C0.36976562 6.18710937 0.11453125 6.99921875 -0.1484375 7.8359375 C-1 10 -1 10 -3 12 C-2.14285714 3.42857143 -2.14285714 3.42857143 0 0 Z " fill="#5E947C" transform="translate(21,56)"/>
<path d="M0 0 C2 2 2 2 2.125 4.625 C2.08375 5.40875 2.0425 6.1925 2 7 C1.34 7 0.68 7 0 7 C0 6.34 0 5.68 0 5 C-0.66 5 -1.32 5 -2 5 C-2 4.01 -2 3.02 -2 2 C-1.34 2 -0.68 2 0 2 C0 1.34 0 0.68 0 0 Z " fill="#4C7F69" transform="translate(202,62)"/>
<path d="M0 0 C0.66 0 1.32 0 2 0 C2 0.66 2 1.32 2 2 C4.64 2.33 7.28 2.66 10 3 C10 3.33 10 3.66 10 4 C2.57142857 4.14285714 2.57142857 4.14285714 -1 3 C-0.67 2.01 -0.34 1.02 0 0 Z " fill="#B0D6C5" transform="translate(117,128)"/>
<path d="M0 0 C0.33 0 0.66 0 1 0 C0.74438677 2.3431213 0.40729228 4.67843403 0 7 C-0.99 7.495 -0.99 7.495 -2 8 C-3 5 -3 5 -2 2 C-1.34 2 -0.68 2 0 2 C0 1.34 0 0.68 0 0 Z " fill="#559276" transform="translate(15,71)"/>
<path d="M0 0 C6.625 0.75 6.625 0.75 10 3 C3.47692308 3.36923077 3.47692308 3.36923077 1.0625 1.5 C0.5365625 0.7575 0.5365625 0.7575 0 0 Z " fill="#D1ECE1" transform="translate(45,68)"/>
</svg>
