<?xml version="1.0" encoding="UTF-8"?>
<svg version="1.1" xmlns="http://www.w3.org/2000/svg" width="207" height="207">
<path d="M0 0 C0.71121002 0.00021149 1.42242004 0.00042297 2.15518188 0.00064087 C12.75296451 0.03214146 22.34413869 0.68258463 32.375 4.375 C33.51195312 4.76042969 34.64890625 5.14585937 35.8203125 5.54296875 C43.0640368 8.13961702 49.73467717 11.50258728 56.375 15.375 C56.375 16.035 56.375 16.695 56.375 17.375 C57.10074219 17.63023438 57.82648438 17.88546875 58.57421875 18.1484375 C61.54402813 19.44902348 63.67343294 20.96112817 66.1875 23 C66.97769531 23.63164062 67.76789063 24.26328125 68.58203125 24.9140625 C75.36537473 30.89099452 81.01363302 37.11924672 86.0625 44.625 C86.62702881 45.4598291 87.19155762 46.2946582 87.77319336 47.15478516 C91.84366269 53.30119979 95.09741966 59.33786073 97.375 66.375 C97.73851562 67.44105469 98.10203125 68.50710937 98.4765625 69.60546875 C107.14808145 96.21268338 105.2529509 124.14145838 93.375 149.375 C89.81740461 156.2606685 85.74625201 162.52520062 80.85546875 168.53515625 C79.2165964 170.51569017 79.2165964 170.51569017 77.375 173.375 C76.715 173.375 76.055 173.375 75.375 173.375 C75.12105469 173.96023437 74.86710938 174.54546875 74.60546875 175.1484375 C66.94878951 189.00338089 44.48325671 198.87421536 30.3515625 203.5078125 C21.37881333 206.01032353 12.497906 205.97746551 3.23413086 205.89648438 C0.31344852 205.87500698 -2.60478183 205.89639959 -5.52539062 205.921875 C-15.97812239 205.93714354 -24.8388805 205.32674027 -34.625 201.375 C-36.17344604 200.80761108 -36.17344604 200.80761108 -37.75317383 200.22875977 C-48.48480917 196.25114399 -60.2975808 189.26277284 -68.625 181.375 C-68.625 180.715 -68.625 180.055 -68.625 179.375 C-69.285 179.375 -69.945 179.375 -70.625 179.375 C-70.625 178.715 -70.625 178.055 -70.625 177.375 C-71.19734375 177.14425781 -71.7696875 176.91351563 -72.359375 176.67578125 C-86.65170656 168.47001158 -95.09951748 145.88294347 -99.73046875 130.90625 C-106.61616484 103.72428815 -103.25721427 75.83952471 -89.93359375 51.25390625 C-74.57821166 26.13663391 -51.74898878 9.28734737 -23.50097656 1.81298828 C-15.73529991 0.00314971 -7.93071399 -0.02170407 0 0 Z " fill="#63B646" transform="translate(102.625,1.625)"/>
<path d="M0 0 C16.13102648 10.25876684 22.31383971 26.22500991 29.75 43 C30.61556099 44.94714976 31.48190798 46.89394472 32.34918213 48.84033203 C33.12590571 50.5842865 33.90042479 52.32922233 34.67480469 54.07421875 C35.73430118 56.41338712 36.82858931 58.71554073 38 61 C40.64 61 43.28 61 46 61 C46.36738281 60.00033203 46.36738281 60.00033203 46.7421875 58.98046875 C47.99419638 56.01375207 49.43166022 53.25338302 50.97094727 50.4296875 C54.71682562 43.55762127 58.27416935 36.60276428 61.5625 29.5 C61.90877441 28.78368408 62.25504883 28.06736816 62.61181641 27.3293457 C64.89126908 22.28948167 65.91711953 17.53458619 65 12 C63.14579161 9.55901182 63.14579161 9.55901182 61 8 C61 7.34 61 6.68 61 6 C54.37685452 5.22546679 54.37685452 5.22546679 48.15625 7.01953125 C45.53011802 9.79071122 44.6574562 12.62499893 44.4375 16.3125 C44.79950323 22.63690929 47.7376388 27.77998547 50.8125 33.1875 C52.65486069 37.55098586 51.44658613 40.66024162 50 45 C48.515 45.495 48.515 45.495 47 46 C45.72660518 43.48043257 44.45623358 40.95941351 43.1875 38.4375 C42.83107422 37.73302734 42.47464844 37.02855469 42.10742188 36.30273438 C41.05580309 34.20914469 40.02192357 32.1082341 39 30 C38.69779541 29.37939697 38.39559082 28.75879395 38.08422852 28.11938477 C35.1893441 21.84008433 34.75016899 15.29320482 36.69140625 8.625 C38.85118522 3.85360546 41.70856355 0.95036256 46 -2 C51.63732866 -3.82001806 58.08035731 -4.23863629 63.578125 -1.90625 C68.31995077 1.04561505 72.4907652 4.43282263 74 10 C75.05432712 18.57889327 73.70371404 24.38084592 70 32 C69.13507448 33.85791365 68.27051041 35.71599561 67.40625 37.57421875 C62.38531094 48.18071438 57.23352629 58.69015676 51.625 69 C51.14998047 69.87615967 50.67496094 70.75231934 50.18554688 71.6550293 C40.8223809 88.63477067 40.8223809 88.63477067 35 92 C31.6953125 92.6015625 31.6953125 92.6015625 28.125 92.625 C26.36542969 92.67527344 26.36542969 92.67527344 24.5703125 92.7265625 C19.75240744 91.74611355 17.17634232 89.6899721 14 86 C12.36804546 83.4416377 11.17027362 80.79506887 10 78 C9.32851194 76.48492737 8.65530753 74.97061438 7.98046875 73.45703125 C7.65095215 72.70631348 7.32143555 71.9555957 6.98193359 71.18212891 C5.53163643 67.95916619 3.92522701 64.83249258 2.3125 61.6875 C-0.28843607 56.53270363 -2.59258249 51.32912071 -4.76171875 45.98046875 C-6.51624923 41.75741906 -8.46349105 37.6310512 -10.3984375 33.48828125 C-12.46418492 28.98898261 -14.41952094 24.44490791 -16.37866211 19.8984375 C-18.67184808 14.6276279 -21.22169194 9.52289444 -23.93359375 4.453125 C-25 2 -25 2 -25 -2 C-16.71569043 -4.33998721 -7.86662246 -3.36017159 0 0 Z " fill="#F2FAEE" transform="translate(48,65)"/>
<path d="M0 0 C-1.74822635 5.82091008 -4.28383203 11.23832314 -6.8125 16.75 C-7.23853516 17.6884375 -7.66457031 18.626875 -8.10351562 19.59375 C-10.59733999 25.0567722 -13.19810764 30.45110695 -15.90405273 35.81201172 C-17.20573574 38.41073818 -18.4318118 41.03732349 -19.625 43.6875 C-20.00914062 44.53699219 -20.39328125 45.38648438 -20.7890625 46.26171875 C-21.9344824 48.8518457 -23.05270366 51.45262234 -24.16552734 54.05688477 C-25.75424416 57.75629878 -27.37505574 61.44138575 -29 65.125 C-29.34289062 65.91003906 -29.68578125 66.69507813 -30.0390625 67.50390625 C-31.81027631 71.51279857 -33.69069402 75.26594677 -36 79 C-36.45375 80.134375 -36.9075 81.26875 -37.375 82.4375 C-39.66412443 87.45596509 -42.34826414 90.89884276 -47 94 C-52.8455584 94.7637413 -59.92472847 95.62799655 -64.875 91.875 C-69.64833318 86.82231144 -72.79212192 80.12077887 -76 74 C-76.41121094 73.23816406 -76.82242188 72.47632813 -77.24609375 71.69140625 C-78.27482636 69.38342065 -77.85415168 68.34891712 -77 66 C-76.3530635 64.3255761 -75.69040574 62.65697379 -75 61 C-74.01 61.33 -73.02 61.66 -72 62 C-70.60560336 62.06665376 -69.20830125 62.08538199 -67.8125 62.0625 C-66.554375 62.041875 -65.29625 62.02125 -64 62 C-59.94009706 54.07000776 -55.98618238 46.13855128 -52.5 37.9375 C-48.6857033 28.99732775 -44.39959799 20.09939698 -39 12 C-38.34 12 -37.68 12 -37 12 C-37 11.34 -37 10.68 -37 10 C-36.34 10 -35.68 10 -35 10 C-35 9.34 -35 8.68 -35 8 C-33.20703125 6.5625 -33.20703125 6.5625 -30.8125 5 C-30.03519531 4.484375 -29.25789063 3.96875 -28.45703125 3.4375 C-20.32121376 -1.32240594 -9.03908705 -3.01302902 0 0 Z " fill="#F3FBEF" transform="translate(184,63)"/>
<path d="M0 0 C2.31 0 4.62 0 7 0 C6.36278449 4.22450281 4.91455175 7.59830567 3.0625 11.4375 C2.42705078 12.76759237 1.7930256 14.09836567 1.16015625 15.4296875 C0.81484863 16.15510742 0.46954102 16.88052734 0.11376953 17.62792969 C-1.97745767 22.08175773 -3.97920779 26.57640255 -6 31.0625 C-9.24585501 38.24506311 -12.61398666 45.32053927 -16.20703125 52.3359375 C-17.67126778 55.26106183 -19.00622345 58.23282268 -20.32421875 61.2265625 C-20.72632568 62.13905762 -21.12843262 63.05155273 -21.54272461 63.99169922 C-22.3340846 65.79974475 -23.11774368 67.61118483 -23.89282227 69.42626953 C-24.25303467 70.24981934 -24.61324707 71.07336914 -24.984375 71.921875 C-25.30116211 72.66018555 -25.61794922 73.39849609 -25.94433594 74.15917969 C-27 76 -27 76 -30 78 C-33.8919977 78.43244419 -36.19407674 78.46052758 -39.625 76.5 C-43.26529511 72.66811041 -47 68.44809195 -47 63 C-45.046875 62.38151042 -43.09375 61.76302083 -41.140625 61.14453125 C-36.03802031 58.41631378 -33.96868189 53.18824381 -31.6875 48.125 C-31.0782549 46.78770123 -30.46887605 45.45046338 -29.859375 44.11328125 C-29.55193359 43.43217285 -29.24449219 42.75106445 -28.92773438 42.04931641 C-26.88577867 37.53874373 -24.78862434 33.05379392 -22.6796875 28.57421875 C-21.60726594 26.29220543 -20.54852377 24.00367943 -19.5078125 21.70703125 C-15.81153809 13.82497582 -11.35175255 6.90116836 -4 2 C-2.68 2 -1.36 2 0 2 C0 1.34 0 0.68 0 0 Z " fill="#65B548" transform="translate(164,71)"/>
<path d="M0 0 C5.94330348 -0.75871959 9.07841327 0.74139588 13.875 4.2578125 C24.20457526 12.72654516 29.27465226 26.04077412 34.41674805 38.05908203 C36.40983506 42.70486344 38.51177733 47.27951886 40.75 51.8125 C41.57757813 53.49279297 41.57757813 53.49279297 42.421875 55.20703125 C44.81180033 59.43672584 46.01290104 60.68212067 50.6875 62.1875 C51.780625 62.455625 52.87375 62.72375 54 63 C53.36532318 66.43195616 52.02411502 68.75691741 50.0625 71.625 C49.53785156 72.40101563 49.01320312 73.17703125 48.47265625 73.9765625 C47 76 47 76 45 78 C40.7351361 78.31591584 37.61042601 78.37042126 34 76 C32.76733398 74.03222656 32.76733398 74.03222656 31.74609375 71.640625 C31.36646484 70.77179688 30.98683594 69.90296875 30.59570312 69.0078125 C30.21349609 68.09773438 29.83128906 67.18765625 29.4375 66.25 C28.66635773 64.46311274 27.89424501 62.67664393 27.12109375 60.890625 C26.5794458 59.6212207 26.5794458 59.6212207 26.02685547 58.32617188 C25.16214367 56.36730976 24.20257624 54.45071956 23.22265625 52.546875 C22 50 22 50 22 47 C21.34 47 20.68 47 20 47 C19.8040625 46.46375 19.608125 45.9275 19.40625 45.375 C17.25455596 39.73607769 14.73617656 34.37148025 12 29 C9.3555794 23.8079354 6.9362828 18.64047188 4.875 13.18359375 C3.95844638 10.89630146 2.88781231 8.74725767 1.75 6.5625 C0 3 0 3 0 0 Z " fill="#67B54A" transform="translate(35,71)"/>
<path d="M0 0 C0.99 0.66 1.98 1.32 3 2 C0.63707344 4.52588702 -0.66462511 5.88820837 -4 7 C-4.94875 6.95875 -5.8975 6.9175 -6.875 6.875 C-10.47421206 7.01896848 -12.02779074 8.07208048 -15 10 C-15.99 10 -16.98 10 -18 10 C-18 10.99 -18 11.98 -18 13 C-18.9075 13.4125 -19.815 13.825 -20.75 14.25 C-24.01886824 15.79970751 -24.01886824 15.79970751 -26.125 18.1875 C-28 20 -28 20 -32 20 C-32.226875 20.598125 -32.45375 21.19625 -32.6875 21.8125 C-34.37345471 24.62242451 -36.16316151 25.36093776 -39 27 C-41.39400073 28.93208773 -43.70272522 30.95429998 -46 33 C-39.23651484 17.48582013 -18.18690223 7.13531932 -3.25 0.875 C-2.1775 0.58625 -1.105 0.2975 0 0 Z " fill="#80A96C" transform="translate(70,6)"/>
<path d="M0 0 C0 0.66 0 1.32 0 2 C-1.19625 1.835 -2.3925 1.67 -3.625 1.5 C-10.07041997 0.76780029 -16.52295265 0.91707905 -23 1 C-20.33843679 7.93572061 -17.32730091 14.63304801 -14.07421875 21.3125 C-13.71972656 22.199375 -13.36523438 23.08625 -13 24 C-13.33 24.66 -13.66 25.32 -14 26 C-16.38184153 23.84692291 -17.64680981 21.95635161 -18.875 19 C-19.99657509 16.3335316 -21.14067453 13.70963836 -22.40234375 11.10546875 C-23.10037109 9.66107422 -23.10037109 9.66107422 -23.8125 8.1875 C-24.47185547 6.84751953 -24.47185547 6.84751953 -25.14453125 5.48046875 C-26.08112329 2.7647795 -26.22725723 1.58829131 -25 -1 C-17.15888482 -3.61370506 -7.76803553 -2.48577137 0 0 Z " fill="#6AAE50" transform="translate(46,62)"/>
<path d="M0 0 C0.226875 0.928125 0.45375 1.85625 0.6875 2.8125 C2.26025094 6.632038 3.54221174 6.97592882 7 9 C7.474375 10.03125 7.94875 11.0625 8.4375 12.125 C8.953125 13.07375 9.46875 14.0225 10 15 C13.08961458 15.97474816 13.08961458 15.97474816 16 16 C16.33 17.98 16.66 19.96 17 22 C18.32 22.33 19.64 22.66 21 23 C21.33 24.32 21.66 25.64 22 27 C18.65750371 26.40312566 16.53563658 25.26396123 14 23 C14 22.34 14 21.68 14 21 C13.34 21 12.68 21 12 21 C12 20.34 12 19.68 12 19 C11.43539063 18.77957031 10.87078125 18.55914062 10.2890625 18.33203125 C7.2785264 16.58016639 5.56218816 14.3903964 3.375 11.6875 C2.59898438 10.74261719 1.82296875 9.79773438 1.0234375 8.82421875 C-0.82938673 6.23813397 -1.98479619 3.99648868 -3 1 C-1 0 -1 0 0 0 Z " fill="#6CA75B" transform="translate(20,160)"/>
<path d="M0 0 C1.231394 3.69418201 0.64432764 6.2056261 0 10 C-0.66 10 -1.32 10 -2 10 C-1.979375 11.0725 -1.95875 12.145 -1.9375 13.25 C-2 17 -2 17 -2.5625 19.125 C-3.16748617 21.10284383 -3.16748617 21.10284383 -2.4375 23.5 C-2 26 -2 26 -2.9609375 27.89453125 C-6.19974843 34.45738499 -3.8293303 45.15922702 -2 52 C-3.485 52.495 -3.485 52.495 -5 53 C-9.40561606 38.05150305 -7.38971205 15.76444044 -0.8671875 1.52734375 C-0.58101563 1.02332031 -0.29484375 0.51929687 0 0 Z " fill="#7EB269" transform="translate(6,69)"/>
<path d="M0 0 C1.125 3.75 1.125 3.75 0 6 C3.3 6.66 6.6 7.32 10 8 C10.66 6.68 11.32 5.36 12 4 C12.33 3.34 12.66 2.68 13 2 C13.99 2.33 14.98 2.66 16 3 C14.68 5.31 13.36 7.62 12 10 C10.741875 10.04125 9.48375 10.0825 8.1875 10.125 C7.47980469 10.14820312 6.77210937 10.17140625 6.04296875 10.1953125 C4 10 4 10 1 8 C0.34 9.98 -0.32 11.96 -1 14 C-2.32 13.67 -3.64 13.34 -5 13 C-5.33 14.32 -5.66 15.64 -6 17 C-6.66 17 -7.32 17 -8 17 C-6.3341708 10.83643195 -3.12194714 5.51740344 0 0 Z " fill="#79B562" transform="translate(108,116)"/>
<path d="M0 0 C0.66 0 1.32 0 2 0 C3.1380851 3.26642251 4.25792166 6.53883987 5.375 9.8125 C5.69210938 10.72193359 6.00921875 11.63136719 6.3359375 12.56835938 C10.06032009 23.54752888 11.30133859 33.61019313 11.125 45.1875 C11.11597656 46.33025391 11.10695312 47.47300781 11.09765625 48.65039062 C11.07436393 51.4338231 11.04165999 54.21679229 11 57 C10.67 57 10.34 57 10 57 C9.98541748 56.3201001 9.97083496 55.6402002 9.95581055 54.93969727 C9.8806358 51.81343718 9.78420768 48.68816518 9.6875 45.5625 C9.65366211 43.95858398 9.65366211 43.95858398 9.61914062 42.32226562 C9.42055743 36.4189287 8.83654738 31.38474113 6.65039062 25.875 C5.73115372 23.22494767 5.78684002 20.77107975 6 18 C5.34 18 4.68 18 4 18 C4 15.36 4 12.72 4 10 C3.34 10 2.68 10 2 10 C0.68373308 6.38026598 0 3.90432869 0 0 Z " fill="#8BB87A" transform="translate(195,60)"/>
<path d="M0 0 C2.475 0.495 2.475 0.495 5 1 C5 1.66 5 2.32 5 3 C2.65688579 4.73795876 0.31827788 6.35211464 -2.125 7.9375 C-2.79015625 8.38029297 -3.4553125 8.82308594 -4.140625 9.27929688 C-15.14254476 16.51683429 -15.14254476 16.51683429 -21 16 C-20.67 15.01 -20.34 14.02 -20 13 C-16.535 12.505 -16.535 12.505 -13 12 C-13 11.34 -13 10.68 -13 10 C-12.01 10 -11.02 10 -10 10 C-10 9.01 -10 8.02 -10 7 C-8.35 7.33 -6.7 7.66 -5 8 C-5 7.01 -5 6.02 -5 5 C-3.70264493 3.95374591 -2.36733028 2.95298777 -1 2 C-0.67 1.34 -0.34 0.68 0 0 Z " fill="#729E60" transform="translate(162,184)"/>
<path d="M0 0 C1.48942292 3.97179446 0.98689506 7.95802112 0 12 C-1.4375 14 -1.4375 14 -3 15 C-3.66 15 -4.32 15 -5 15 C-4.87625 16.3303125 -4.87625 16.3303125 -4.75 17.6875 C-5.05523584 21.73187485 -6.35088036 23.02977495 -9 26 C-9.33 26.99 -9.66 27.98 -10 29 C-10.99 29.33 -11.98 29.66 -13 30 C-11.45799557 24.94254507 -9.35064941 20.31093483 -7.0625 15.5625 C-4.59680962 10.41611471 -2.21131326 5.2614005 0 0 Z " fill="#7CB865" transform="translate(162,110)"/>
<path d="M0 0 C0.66 0 1.32 0 2 0 C0.44010394 5.00433659 -1.54840522 9.7245961 -3.6875 14.5 C-4.0376416 15.2844751 -4.3877832 16.0689502 -4.74853516 16.87719727 C-12.70205888 34.55308833 -12.70205888 34.55308833 -17 41 C-16.40630579 34.02409305 -13.98757736 28.28714717 -10.375 22.3125 C-8.78559323 19.6394068 -7.89757304 16.96889545 -7 14 C-6.34 14 -5.68 14 -5 14 C-5 12.35 -5 10.7 -5 9 C-4.34 9 -3.68 9 -3 9 C-2.01 6.03 -1.02 3.06 0 0 Z " fill="#79B362" transform="translate(161,89)"/>
<path d="M0 0 C4.50235595 -0.02472359 9.00467236 -0.04287119 13.50708008 -0.05493164 C15.0386626 -0.0599596 16.57024033 -0.06678284 18.10180664 -0.07543945 C20.30356022 -0.08757229 22.50525033 -0.09324367 24.70703125 -0.09765625 C25.39150833 -0.10281754 26.07598541 -0.10797882 26.78120422 -0.11329651 C29.80906242 -0.1136536 32.10150142 0.03383381 35 1 C35 1.66 35 2.32 35 3 C23.45 2.67 11.9 2.34 0 2 C0 1.34 0 0.68 0 0 Z " fill="#61914C" transform="translate(87,2)"/>
<path d="M0 0 C1.32 0.33 2.64 0.66 4 1 C4 2.65 4 4.3 4 6 C4.66 6 5.32 6 6 6 C6.33 7.65 6.66 9.3 7 11 C7.66 11 8.32 11 9 11 C9.391875 12.258125 9.78375 13.51625 10.1875 14.8125 C11.75479504 19.59767134 13.8520932 24.02442698 16.109375 28.51953125 C17.10784975 31.30037102 16.82592208 32.25769192 16 35 C15.48050781 33.80503906 14.96101563 32.61007813 14.42578125 31.37890625 C9.64942126 20.43194557 9.64942126 20.43194557 4.03125 9.90234375 C2.31136656 6.72967998 1.17672596 3.406312 0 0 Z " fill="#75B25E" transform="translate(64,80)"/>
<path d="M0 0 C0.66 0.33 1.32 0.66 2 1 C1.25 3.375 1.25 3.375 0 6 C-0.680625 6.33 -1.36125 6.66 -2.0625 7 C-2.701875 7.33 -3.34125 7.66 -4 8 C-4.81171228 10.55519921 -4.81171228 10.55519921 -5 13 C-5.99 13.33 -6.98 13.66 -8 14 C-8.33 15.65 -8.66 17.3 -9 19 C-9.66 19 -10.32 19 -11 19 C-11.33 21.64 -11.66 24.28 -12 27 C-12.99 27.33 -13.98 27.66 -15 28 C-13.48041952 17.63568183 -6.74631099 7.75108071 0 0 Z " fill="#7DAF6E" transform="translate(22,40)"/>
<path d="M0 0 C1.60080151 4.00200378 0.29279692 7.04556236 -1 11 C-1.66 11 -2.32 11 -3 11 C-3.12375 11.680625 -3.2475 12.36125 -3.375 13.0625 C-3.58125 14.031875 -3.7875 15.00125 -4 16 C-4.226875 17.155 -4.45375 18.31 -4.6875 19.5 C-6.3580403 23.95477412 -8.19048812 25.2670893 -12 28 C-10.35579976 22.49237844 -7.93493572 17.46913268 -5.4375 12.3125 C-4.62215405 10.62183743 -3.80828674 8.93046076 -2.99609375 7.23828125 C-2.63700928 6.49618408 -2.2779248 5.75408691 -1.90795898 4.98950195 C-0.89643939 2.86630413 -0.89643939 2.86630413 0 0 Z " fill="#7CB867" transform="translate(182,66)"/>
<path d="M0 0 C0.33 0 0.66 0 1 0 C1.50280963 10.83834086 0.1892294 19.90956932 -6 29 C-6.99 29.33 -7.98 29.66 -9 30 C-7.44323039 24.93221807 -5.81069676 20.52155565 -3 16 C-0.8190336 10.78991359 -0.4187 5.57532104 0 0 Z " fill="#7FB869" transform="translate(122,78)"/>
<path d="M0 0 C1.65 0 3.3 0 5 0 C3.68 0.33 2.36 0.66 1 1 C3.66156321 7.93572061 6.67269909 14.63304801 9.92578125 21.3125 C10.28027344 22.199375 10.63476562 23.08625 11 24 C10.67 24.66 10.34 25.32 10 26 C7.51474575 23.77597986 6.27255987 21.75755068 5 18.6875 C3.86021933 15.96956148 2.71761503 13.50582631 1.25 10.9375 C-0.40341087 7.05198445 -0.21708893 4.19705269 0 0 Z " fill="#88BB75" transform="translate(22,62)"/>
<path d="M0 0 C1.22211912 2.44423825 0.97136888 3.78634778 0.8125 6.5 C0.73715849 12.25943976 2.32891253 16.9307829 5 22 C5.66 22.66 6.32 23.32 7 24 C7.125 27.625 7.125 27.625 7 31 C6.7215625 30.43023437 6.443125 29.86046875 6.15625 29.2734375 C5.00588205 27.01156538 3.7654916 24.82417748 2.5 22.625 C-1.05917915 16.17858112 -2.96134834 10.42217471 -2 3 C-1.34 2.01 -0.68 1.02 0 0 Z " fill="#7AB365" transform="translate(94,74)"/>
<path d="M0 0 C0.66 0 1.32 0 2 0 C0.13257759 6.42211121 -2.23357594 12.43116178 -6 18 C-9.04983996 19.52491998 -11.6423369 19.23562548 -15 19 C-16.9375 17.5 -16.9375 17.5 -18 16 C-14.95613276 15.91773332 -12.92824652 16.02391783 -10 17 C-9.01 17 -8.02 17 -7 17 C-6.89816406 16.47921875 -6.79632813 15.9584375 -6.69140625 15.421875 C-5.76928774 12.19185537 -4.36563417 9.28858334 -2.9375 6.25 C-2.38964844 5.07953125 -1.84179688 3.9090625 -1.27734375 2.703125 C-0.85582031 1.81109375 -0.43429688 0.9190625 0 0 Z " fill="#77B162" transform="translate(142,130)"/>
<path d="M0 0 C2.0625 0.4375 2.0625 0.4375 4 1 C2.8553125 1.7734375 2.8553125 1.7734375 1.6875 2.5625 C-4.21517463 7.91608861 -4.41205688 14.03581089 -4.88671875 21.62109375 C-4.94279297 22.79865234 -4.94279297 22.79865234 -5 24 C-7 22 -7 22 -7.265625 19.609375 C-7.23692463 14.35720758 -7.12218762 9.90755888 -5 5 C-4.34 5 -3.68 5 -3 5 C-2.690625 4.360625 -2.38125 3.72125 -2.0625 3.0625 C-1 1 -1 1 0 0 Z " fill="#78B363" transform="translate(89,64)"/>
<path d="M0 0 C9.70027732 1.57963232 19.4592878 13.34127855 25 21 C24.67 21.66 24.34 22.32 24 23 C21 21 21 21 19.75 18.8125 C15.10813571 11.35236097 7.79785287 5.89892643 0 2 C0 1.34 0 0.68 0 0 Z " fill="#8EAF85" transform="translate(160,20)"/>
<path d="M0 0 C4.1666604 0.47348414 6.92884715 1.04696841 10 4 C10 4.66 10 5.32 10 6 C10.99 6 11.98 6 13 6 C13 6.66 13 7.32 13 8 C13.99 8.33 14.98 8.66 16 9 C16.3721042 10.32303717 16.70630173 11.65737935 17 13 C17.66 13.33 18.32 13.66 19 14 C18.34 14.66 17.68 15.32 17 16 C16.61070313 15.50371094 16.22140625 15.00742188 15.8203125 14.49609375 C11.69836181 9.49086791 7.36382468 5.89525936 1.94140625 2.34765625 C1.30074219 1.90292969 0.66007812 1.45820312 0 1 C0 0.67 0 0.34 0 0 Z " fill="#82B86B" transform="translate(46,64)"/>
<path d="M0 0 C7.75 -0.125 7.75 -0.125 10 1 C11.95774069 1.15378852 13.92017352 1.24971463 15.8828125 1.31640625 C17.04941406 1.35830078 18.21601562 1.40019531 19.41796875 1.44335938 C20.64128906 1.48267578 21.86460938 1.52199219 23.125 1.5625 C24.35605469 1.60568359 25.58710937 1.64886719 26.85546875 1.69335938 C29.90352853 1.79968704 32.9516719 1.90171781 36 2 C36 2.33 36 2.66 36 3 C31.35522856 3.02472039 26.71049543 3.04286968 22.06567383 3.05493164 C20.48558892 3.05996014 18.90550866 3.06678378 17.32543945 3.07543945 C15.05418754 3.08756992 12.78299715 3.09324313 10.51171875 3.09765625 C9.45219246 3.10539818 9.45219246 3.10539818 8.3712616 3.11329651 C5.29745609 3.11364803 2.9409558 2.9803186 0 2 C0 1.34 0 0.68 0 0 Z " fill="#6FAA5A" transform="translate(78,204)"/>
<path d="M0 0 C0.33 0 0.66 0 1 0 C1.05534912 0.73637695 1.11069824 1.47275391 1.16772461 2.23144531 C1.42076358 5.57124377 1.67907333 8.91061429 1.9375 12.25 C2.02451172 13.40886719 2.11152344 14.56773438 2.20117188 15.76171875 C2.28818359 16.87675781 2.37519531 17.99179688 2.46484375 19.140625 C2.543396 20.16704102 2.62194824 21.19345703 2.70288086 22.25097656 C2.95670201 24.59939573 3.35289171 26.73393582 4 29 C3.01 29.33 2.02 29.66 1 30 C-0.03974499 26.58934861 -0.11508506 23.47735158 -0.09765625 19.921875 C-0.09443359 18.76171875 -0.09121094 17.6015625 -0.08789062 16.40625 C-0.07951172 15.1996875 -0.07113281 13.993125 -0.0625 12.75 C-0.05798828 11.52796875 -0.05347656 10.3059375 -0.04882812 9.046875 C-0.03704815 6.03120054 -0.02059853 3.01562502 0 0 Z " fill="#8CBC77" transform="translate(0,92)"/>
<path d="M0 0 C0 3.10551666 -0.5393715 4.35261084 -2 7 C-2.66 7 -3.32 7 -4 7 C-4.33 7.99 -4.66 8.98 -5 10 C-5.99 9.34 -6.98 8.68 -8 8 C-7.67 9.98 -7.34 11.96 -7 14 C-11 9.375 -11 9.375 -11 6 C-10.45730469 5.81824219 -9.91460937 5.63648438 -9.35546875 5.44921875 C-8.28232422 5.07216797 -8.28232422 5.07216797 -7.1875 4.6875 C-6.47980469 4.44386719 -5.77210937 4.20023438 -5.04296875 3.94921875 C-2.85527627 2.93275742 -1.59103282 1.79179406 0 0 Z " fill="#81BB6B" transform="translate(128,128)"/>
<path d="M0 0 C2.85923637 7.80494252 -1.92326924 18.67445058 -5 26 C-5.33 26 -5.66 26 -6 26 C-6 23.69 -6 21.38 -6 19 C-5.34 19 -4.68 19 -4 19 C-4 16.36 -4 13.72 -4 11 C-3.01 10.67 -2.02 10.34 -1 10 C-1.01160156 9.36191406 -1.02320313 8.72382812 -1.03515625 8.06640625 C-1.04417969 7.24011719 -1.05320313 6.41382812 -1.0625 5.5625 C-1.07410156 4.73878906 -1.08570313 3.91507812 -1.09765625 3.06640625 C-1 1 -1 1 0 0 Z " fill="#83B371" transform="translate(204,118)"/>
<path d="M0 0 C1.76462683 3.08809695 2 4.23312136 2 8 C2.66 8 3.32 8 4 8 C4.26554688 8.73605469 4.53109375 9.47210938 4.8046875 10.23046875 C5.15789063 11.20628906 5.51109375 12.18210938 5.875 13.1875 C6.22304687 14.15042969 6.57109375 15.11335937 6.9296875 16.10546875 C7.90990488 18.75634859 8.93720434 21.3813098 10 24 C6.17116549 20.6635655 4.2786581 17.08523729 2.1875 12.5625 C1.86330078 11.90701172 1.53910156 11.25152344 1.20507812 10.57617188 C-0.62628389 6.66639044 -1.43045932 4.1475329 0 0 Z " fill="#85AE76" transform="translate(7,137)"/>
<path d="M0 0 C1.9375 0.75 1.9375 0.75 4 2 C4.75 4.125 4.75 4.125 5 6 C7.91634129 6.2502157 7.91634129 6.2502157 11 6 C11.66 5.01 12.32 4.02 13 3 C13.99 3.33 14.98 3.66 16 4 C15 6.5 15 6.5 13 9 C7.99607667 10.04920973 7.99607667 10.04920973 5 9 C2.90503097 6.73462679 0 3.25337283 0 0 Z " fill="#7BB666" transform="translate(81,117)"/>
<path d="M0 0 C1.125 3.75 1.125 3.75 0 6 C0.99 6.33 1.98 6.66 3 7 C1.68 9.64 0.36 12.28 -1 15 C-2 11 -2 11 -2 8 C-3.32 8 -4.64 8 -6 8 C-6.33 5.69 -6.66 3.38 -7 1 C-5 2 -5 2 -3 5 C-2.34 5 -1.68 5 -1 5 C-0.67 3.35 -0.34 1.7 0 0 Z " fill="#7AB461" transform="translate(99,105)"/>
<path d="M0 0 C5.92863717 1.16651426 11.38798394 2.75519358 17 5 C16.67 5.66 16.34 6.32 16 7 C12.19281452 6.27246734 8.44514431 5.38723428 4.6875 4.4375 C3.61886719 4.16808594 2.55023438 3.89867187 1.44921875 3.62109375 C0.64097656 3.41613281 -0.16726562 3.21117187 -1 3 C-0.67 2.01 -0.34 1.02 0 0 Z " fill="#73A15E" transform="translate(126,4)"/>
<path d="M0 0 C0.99 0.99 1.98 1.98 3 3 C1.90751403 4.50852857 0.80061501 6.00662831 -0.3125 7.5 C-0.92738281 8.3353125 -1.54226562 9.170625 -2.17578125 10.03125 C-2.77777344 10.6809375 -3.37976563 11.330625 -4 12 C-4.99 12 -5.98 12 -7 12 C-7 11.01 -7 10.02 -7 9 C-6.34 9 -5.68 9 -5 9 C-4.67 8.01 -4.34 7.02 -4 6 C-3.34 6 -2.68 6 -2 6 C-1.34 4.02 -0.68 2.04 0 0 Z " fill="#6B9D58" transform="translate(186,160)"/>
<path d="M0 0 C3.41021743 0.78697325 6.68885166 1.87119943 10 3 C10 3.66 10 4.32 10 5 C12.64 6.32 15.28 7.64 18 9 C13.23012978 10.19246755 12.53549366 9.56823917 8.4375 7.1875 C7.48746094 6.64480469 6.53742187 6.10210937 5.55859375 5.54296875 C3.67701932 4.40827883 1.82821039 3.21880693 0 2 C0 1.34 0 0.68 0 0 Z " fill="#789B6B" transform="translate(46,190)"/>
<path d="M0 0 C1.32 0.33 2.64 0.66 4 1 C3.34 1 2.68 1 2 1 C2 1.66 2 2.32 2 3 C1.34 3 0.68 3 0 3 C0 3.66 0 4.32 0 5 C-0.66 5 -1.32 5 -2 5 C-2.2475 5.680625 -2.495 6.36125 -2.75 7.0625 C-4.24197908 10.56865083 -6.06835511 13.71620368 -8 17 C-8.33 17 -8.66 17 -9 17 C-9.39451163 13.54802327 -9.21819966 12.2982062 -7.125 9.4375 C-6.42375 8.633125 -5.7225 7.82875 -5 7 C-4.29114106 5.68861096 -3.60543548 4.36222983 -3 3 C-2.34 3 -1.68 3 -1 3 C-0.67 2.01 -0.34 1.02 0 0 Z " fill="#76B460" transform="translate(147,70)"/>
<path d="M0 0 C0.33 0 0.66 0 1 0 C1.125 5.75 1.125 5.75 0 8 C-0.66 8 -1.32 8 -2 8 C-2.12375 8.94875 -2.2475 9.8975 -2.375 10.875 C-3 14 -3 14 -5 16 C-6.98821313 16.39764263 -8.98944339 16.73775349 -11 17 C-10.2575 16.29875 -9.515 15.5975 -8.75 14.875 C-4.40461068 10.33209299 -1.72941207 6.05294226 0 0 Z " fill="#83B96D" transform="translate(148,140)"/>
<path d="M0 0 C4.15345599 4.94459046 6.07187618 10.9189941 8 17 C6.68 16.67 5.36 16.34 4 16 C3.34 13.69 2.68 11.38 2 9 C1.34 9 0.68 9 0 9 C0 6.03 0 3.06 0 0 Z " fill="#80BA69" transform="translate(50,125)"/>
<path d="M0 0 C0.66 0.99 1.32 1.98 2 3 C1.37530495 4.35350594 0.69429379 5.6808418 0 7 C-0.556875 8.0725 -1.11375 9.145 -1.6875 10.25 C-4 13 -4 13 -7.75 13.375 C-8.8225 13.25125 -9.895 13.1275 -11 13 C-11.33 12.34 -11.66 11.68 -12 11 C-10.948125 11.04125 -9.89625 11.0825 -8.8125 11.125 C-4.93064508 10.41444135 -4.93064508 10.41444135 -3.421875 7.70703125 C-2.17620313 5.1691538 -1.03578791 2.63004211 0 0 Z " fill="#DFF3D6" transform="translate(125,115)"/>
<path d="M0 0 C0.66 0.99 1.32 1.98 2 3 C0.68 5.31 -0.64 7.62 -2 10 C-2.66 10 -3.32 10 -4 10 C-4.33 11.32 -4.66 12.64 -5 14 C-6.98 14.33 -8.96 14.66 -11 15 C-10.29875 14.38125 -9.5975 13.7625 -8.875 13.125 C-5.06064252 9.35436009 -2.61908234 4.63514572 0 0 Z " fill="#7BB664" transform="translate(94,142)"/>
<path d="M0 0 C0.33 0 0.66 0 1 0 C1 1.98 1 3.96 1 6 C0.11054687 6.15275391 0.11054687 6.15275391 -0.796875 6.30859375 C-3.36184111 7.11355652 -4.42743483 8.11566902 -6.25 10.0625 C-6.77078125 10.61035156 -7.2915625 11.15820312 -7.828125 11.72265625 C-8.21484375 12.14417969 -8.6015625 12.56570312 -9 13 C-9.66 12.67 -10.32 12.34 -11 12 C-9.85996765 8.57990294 -8.77829802 7.71130558 -6.0625 5.4375 C-3.96656037 3.66869432 -1.94005112 1.94005112 0 0 Z " fill="#6AAF4F" transform="translate(33,30)"/>
<path d="M0 0 C0.99 0.66 1.98 1.32 3 2 C0.63707344 4.52588702 -0.66462511 5.88820837 -4 7 C-6.1875 6.0625 -6.1875 6.0625 -8 5 C-8 4.34 -8 3.68 -8 3 C-6.73637508 2.44172391 -5.4637081 1.90387903 -4.1875 1.375 C-3.47980469 1.07335937 -2.77210937 0.77171875 -2.04296875 0.4609375 C-1.36878906 0.30882812 -0.69460937 0.15671875 0 0 Z " fill="#76AC60" transform="translate(70,6)"/>
<path d="M0 0 C0.66 0 1.32 0 2 0 C2.67548578 2.05962852 3.34004312 4.12284322 4 6.1875 C4.37125 7.33605469 4.7425 8.48460938 5.125 9.66796875 C5.90630553 12.64320812 6.18363306 14.95283896 6 18 C5.34 18 4.68 18 4 18 C4 15.36 4 12.72 4 10 C3.34 10 2.68 10 2 10 C0.68373308 6.38026598 0 3.90432869 0 0 Z " fill="#7DB068" transform="translate(195,60)"/>
<path d="M0 0 C0.99 0.33 1.98 0.66 3 1 C2.01 1.8971875 2.01 1.8971875 1 2.8125 C-1.90454381 7.44161669 -1.33587245 11.67268974 -1 17 C-4 15 -4 15 -4.43359375 13.046875 C-4.44324953 7.36927498 -3.61523208 4.4060641 0 0 Z " fill="#E9FAE2" transform="translate(94,71)"/>
<path d="M0 0 C0 0.66 0 1.32 0 2 C-0.66 2 -1.32 2 -2 2 C-2.33 2.99 -2.66 3.98 -3 5 C-4.84765625 6.60546875 -4.84765625 6.60546875 -7.0625 8.1875 C-7.79597656 8.71730469 -8.52945313 9.24710938 -9.28515625 9.79296875 C-9.85105469 10.19128906 -10.41695312 10.58960937 -11 11 C-11.66 10.67 -12.32 10.34 -13 10 C-12.67 9.34 -12.34 8.68 -12 8 C-11.34 8 -10.68 8 -10 8 C-10 7.34 -10 6.68 -10 6 C-9.34 6 -8.68 6 -8 6 C-8 5.34 -8 4.68 -8 4 C-2.58823529 0 -2.58823529 0 0 0 Z " fill="#DFF3D7" transform="translate(157,67)"/>
<path d="M0 0 C1.89453125 0.1875 1.89453125 0.1875 4 1 C5.01171875 3.25 5.01171875 3.25 5.6875 6 C6.30924869 9.28620238 6.30924869 9.28620238 8 12 C8.04063832 13.66617115 8.042721 15.33388095 8 17 C5.20177321 13.68479875 3.81181008 10.30218939 2.3125 6.25 C1.87550781 5.07953125 1.43851563 3.9090625 0.98828125 2.703125 C0.66214844 1.81109375 0.33601563 0.9190625 0 0 Z " fill="#75B260" transform="translate(60,126)"/>
<path d="M0 0 C5.29158974 1.40071493 7.77478044 4.85487245 11 9 C9.02 9.99 9.02 9.99 7 11 C4 6.25 4 6.25 4 4 C3.34 4 2.68 4 2 4 C2 3.34 2 2.68 2 2 C1.34 2 0.68 2 0 2 C0 1.34 0 0.68 0 0 Z " fill="#7EB868" transform="translate(45,74)"/>
<path d="M0 0 C2.97 0.495 2.97 0.495 6 1 C6.33 2.65 6.66 4.3 7 6 C6.34 6 5.68 6 5 6 C4.67 6.66 4.34 7.32 4 8 C0 3.375 0 3.375 0 0 Z " fill="#60B344" transform="translate(38,74)"/>
<path d="M0 0 C0.99 0.33 1.98 0.66 3 1 C3 1.66 3 2.32 3 3 C3.66 3.33 4.32 3.66 5 4 C3.37604003 4.50336767 1.75079459 5.00258976 0.125 5.5 C-0.77992188 5.7784375 -1.68484375 6.056875 -2.6171875 6.34375 C-5 7 -5 7 -7 7 C-7 6.01 -7 5.02 -7 4 C-5.02 3.67 -3.04 3.34 -1 3 C-0.67 2.01 -0.34 1.02 0 0 Z " fill="#648F55" transform="translate(133,199)"/>
<path d="M0 0 C1.32 0.66 2.64 1.32 4 2 C3.34 2 2.68 2 2 2 C1.7525 2.5775 1.505 3.155 1.25 3.75 C-0.18299988 6.32939979 -1.78424676 8.06121592 -4 10 C-4.66 10 -5.32 10 -6 10 C-6 9.34 -6 8.68 -6 8 C-5.34 8 -4.68 8 -4 8 C-4 6.68 -4 5.36 -4 4 C-3.01 4 -2.02 4 -1 4 C-0.67 2.68 -0.34 1.36 0 0 Z " fill="#6FA360" transform="translate(176,173)"/>
<path d="M0 0 C2 2 2 2 2 6 C3.32 6.33 4.64 6.66 6 7 C6.33 8.32 6.66 9.64 7 11 C5.1875 10.8125 5.1875 10.8125 3 10 C1.375 7.6875 1.375 7.6875 0 5 C-0.391875 4.236875 -0.78375 3.47375 -1.1875 2.6875 C-1.455625 2.130625 -1.72375 1.57375 -2 1 C-1.34 0.67 -0.68 0.34 0 0 Z " fill="#6FA857" transform="translate(35,176)"/>
<path d="M0 0 C1.29221628 4.20893303 0.48195994 6.85051218 -1 11 C-2.5 13.4375 -2.5 13.4375 -4 15 C-4.66 15 -5.32 15 -6 15 C-4.40109514 9.80355921 -2.25861997 4.93387858 0 0 Z " fill="#E3F5DC" transform="translate(161,93)"/>
<path d="M0 0 C0.53625 0.268125 1.0725 0.53625 1.625 0.8125 C0.635 0.8125 -0.355 0.8125 -1.375 0.8125 C-2.035 2.1325 -2.695 3.4525 -3.375 4.8125 C-4.035 4.8125 -4.695 4.8125 -5.375 4.8125 C-5.643125 5.451875 -5.91125 6.09125 -6.1875 6.75 C-7.375 8.8125 -7.375 8.8125 -10.375 9.8125 C-9.01008735 5.03530571 -5.57550568 -0.4401715 0 0 Z " fill="#D6EECB" transform="translate(96.375,63.1875)"/>
<path d="M0 0 C0.86625 0.804375 1.7325 1.60875 2.625 2.4375 C8.01623155 6.38883741 14.5609107 5.90176147 21 6 C21 6.33 21 6.66 21 7 C18.60385874 7.05425226 16.20896147 7.09379027 13.8125 7.125 C12.80219727 7.15013672 12.80219727 7.15013672 11.77148438 7.17578125 C7.74546635 7.21505947 4.54549551 6.98762627 1 5 C0.1875 2.375 0.1875 2.375 0 0 Z " fill="#90C27C" transform="translate(62,151)"/>
<path d="M0 0 C1.76243653 3.52487306 0.11041286 7.36533465 -1 11 C-2.5 13.5625 -2.5 13.5625 -4 15 C-4.66 15 -5.32 15 -6 15 C-4.36041242 9.76727367 -2.61047965 4.84803364 0 0 Z " fill="#85BD72" transform="translate(169,95)"/>
<path d="M0 0 C0.66 0.33 1.32 0.66 2 1 C0.02 5.29 -1.96 9.58 -4 14 C-4.33 14 -4.66 14 -5 14 C-5.34833144 9.12335991 -4.41685712 6.22949995 -2 2 C-1.34 2 -0.68 2 0 2 C0 1.34 0 0.68 0 0 Z " fill="#76B361" transform="translate(136,88)"/>
<path d="M0 0 C2.44168979 3.03056792 4.13027389 6.09018596 5.75 9.625 C6.19859375 10.58664063 6.6471875 11.54828125 7.109375 12.5390625 C7.40328125 13.35117188 7.6971875 14.16328125 8 15 C7.67 15.66 7.34 16.32 7 17 C3.90407165 13.4912812 2.25805377 10.50802601 1 6 C0.67 6 0.34 6 0 6 C0 4.02 0 2.04 0 0 Z " fill="#85BB73" transform="translate(84,88)"/>
<path d="M0 0 C5.28137429 0.51525603 8.57221156 2.25477117 13 5 C13 5.66 13 6.32 13 7 C10.69 6.34 8.38 5.68 6 5 C6 4.34 6 3.68 6 3 C3.03 2.505 3.03 2.505 0 2 C0 1.34 0 0.68 0 0 Z " fill="#7CA969" transform="translate(146,12)"/>
<path d="M0 0 C1.9375 0.375 1.9375 0.375 4 1 C4.33 1.66 4.66 2.32 5 3 C5.99 3.33 6.98 3.66 8 4 C8.33 3.01 8.66 2.02 9 1 C10.32 1.66 11.64 2.32 13 3 C11 5 11 5 7.625 5.25 C4.36476676 5.02515633 2.69367359 4.7239511 0 3 C0 2.01 0 1.02 0 0 Z " fill="#78B45E" transform="translate(69,144)"/>
<path d="M0 0 C0.84119973 2.39957614 1.11193544 3.64922558 0.328125 6.10546875 C-0.02765625 6.79253906 -0.3834375 7.47960937 -0.75 8.1875 C-1.26820313 9.22970703 -1.26820313 9.22970703 -1.796875 10.29296875 C-3 12 -3 12 -6 13 C-4.58707905 8.1725201 -2.57025846 4.2837641 0 0 Z " fill="#E0F5D6" transform="translate(143,78)"/>
<path d="M0 0 C6.52307692 -0.36923077 6.52307692 -0.36923077 8.9375 1.5 C9.288125 1.995 9.63875 2.49 10 3 C7.69 3 5.38 3 3 3 C2.67 3.99 2.34 4.98 2 6 C0 3 0 3 0 0 Z " fill="#85B873" transform="translate(35,71)"/>
<path d="M0 0 C0.66 0 1.32 0 2 0 C0.40109514 5.19644079 -1.74138003 10.06612142 -4 15 C-4.33 15 -4.66 15 -5 15 C-5.26252625 10.66831683 -4.29243536 7.1196377 -3 3 C-2.01 3 -1.02 3 0 3 C0 2.01 0 1.02 0 0 Z " fill="#76B55F" transform="translate(129,103)"/>
<path d="M0 0 C2.43757413 -0.02698422 4.87484915 -0.04683099 7.3125 -0.0625 C8.00279297 -0.07087891 8.69308594 -0.07925781 9.40429688 -0.08789062 C12.5483025 -0.10307906 14.99420019 -0.00193327 18 1 C18 1.66 18 2.32 18 3 C12.06 2.34 6.12 1.68 0 1 C0 0.67 0 0.34 0 0 Z " fill="#7EB668" transform="translate(28,61)"/>
<path d="M0 0 C1.31538327 4.15771494 0.34433068 6.8879297 -1 11 C-1.66 11 -2.32 11 -3 11 C-3.33 11.99 -3.66 12.98 -4 14 C-4.33 13.34 -4.66 12.68 -5 12 C-4.26821134 9.92803369 -3.44100997 7.8891448 -2.5625 5.875 C-2.08941406 4.77929688 -1.61632812 3.68359375 -1.12890625 2.5546875 C-0.75636719 1.71164063 -0.38382813 0.86859375 0 0 Z " fill="#85BA6F" transform="translate(182,66)"/>
<path d="M0 0 C2.31 0 4.62 0 7 0 C6.67 1.65 6.34 3.3 6 5 C5.484375 4.649375 4.96875 4.29875 4.4375 3.9375 C1.05993333 2.6384359 -1.50468057 3.32782319 -5 4 C-4.67 3.34 -4.34 2.68 -4 2 C-2.68 2 -1.36 2 0 2 C0 1.34 0 0.68 0 0 Z " fill="#90BD7C" transform="translate(164,71)"/>
<path d="M0 0 C0 1.32 0 2.64 0 4 C-0.66 3.67 -1.32 3.34 -2 3 C-1.67 2.34 -1.34 1.68 -1 1 C-5.29 0.67 -9.58 0.34 -14 0 C-14 -0.33 -14 -0.66 -14 -1 C-8.77402706 -2.22964069 -4.60842195 -3.0722813 0 0 Z " fill="#75B45E" transform="translate(185,62)"/>
<path d="M0 0 C7.75 -0.125 7.75 -0.125 10 1 C10 1.66 10 2.32 10 3 C3.375 3.125 3.375 3.125 0 2 C0 1.34 0 0.68 0 0 Z " fill="#648D54" transform="translate(78,204)"/>
<path d="M0 0 C0.2475 0.86625 0.495 1.7325 0.75 2.625 C2.06778613 6.18302254 3.80186822 8.9226155 6 12 C1.55092795 10.51697598 -0.74579392 6.91714499 -3 3 C-3 2.34 -3 1.68 -3 1 C-1 0 -1 0 0 0 Z " fill="#7BA56F" transform="translate(20,160)"/>
<path d="M0 0 C2.22825644 2.22825644 2.69239369 3.65761628 3.625 6.625 C4.01558594 7.85089844 4.01558594 7.85089844 4.4140625 9.1015625 C4.60742188 9.72804688 4.80078125 10.35453125 5 11 C4.01 11.495 4.01 11.495 3 12 C1.09598862 10.09598862 0.06479561 8.66574314 -0.19921875 5.953125 C-0.1886578 3.96766727 -0.09915043 1.9830086 0 0 Z " fill="#7BB766" transform="translate(71,115)"/>
<path d="M0 0 C0.99 0 1.98 0 3 0 C6.42857143 7.28571429 6.42857143 7.28571429 6 12 C2.82781157 8.37464179 1.57097403 4.48849722 0 0 Z " fill="#75B261" transform="translate(47,98)"/>
<path d="M0 0 C2.2477975 2.05233685 3.0022242 3.00667261 4 6 C3.01 6.33 2.02 6.66 1 7 C1 6.34 1 5.68 1 5 C-0.32 5.33 -1.64 5.66 -3 6 C-1.125 1.125 -1.125 1.125 0 0 Z " fill="#75B95A" transform="translate(152,80)"/>
<path d="M0 0 C5.75 1.625 5.75 1.625 8 5 C8.125 7.6875 8.125 7.6875 8 10 C5.33333333 6.66666667 2.66666667 3.33333333 0 0 Z " fill="#7FB868" transform="translate(114,65)"/>
<path d="M0 0 C0.93045933 2.55144824 1.08564091 3.74006478 0.22265625 6.359375 C-0.16019531 7.14828125 -0.54304687 7.9371875 -0.9375 8.75 C-1.50791016 9.94882813 -1.50791016 9.94882813 -2.08984375 11.171875 C-2.39019531 11.77515625 -2.69054687 12.3784375 -3 13 C-3.66 13 -4.32 13 -5 13 C-4.54554036 11.58208592 -4.08625056 10.16571954 -3.625 8.75 C-3.24214844 7.56664062 -3.24214844 7.56664062 -2.8515625 6.359375 C-2.04826333 4.13372042 -1.10288338 2.09068328 0 0 Z " fill="#D7F2D0" transform="translate(147,123)"/>
<path d="M0 0 C3.39417765 3.12621626 5.6062718 5.56541027 7 10 C4.0625 8.375 4.0625 8.375 1 6 C0.125 2.75 0.125 2.75 0 0 Z " fill="#DBF3D3" transform="translate(60,76)"/>
<path d="M0 0 C3.15330554 0.60694155 5.18888867 1.6416665 7.75 3.5625 C8.67039063 4.24505859 8.67039063 4.24505859 9.609375 4.94140625 C10.29773438 5.46541016 10.29773438 5.46541016 11 6 C10.34 6.66 9.68 7.32 9 8 C7.88625 7.071875 7.88625 7.071875 6.75 6.125 C4.51198812 4.39562719 2.56260013 3.13893339 0 2 C0 1.34 0 0.68 0 0 Z " fill="#7DA56F" transform="translate(160,20)"/>
<path d="M0 0 C0 0.66 0 1.32 0 2 C-6.0546875 2.1953125 -6.0546875 2.1953125 -8 2 C-8.66 1.34 -9.32 0.68 -10 0 C-6.30581799 -1.231394 -3.7943739 -0.64432764 0 0 Z " fill="#79A568" transform="translate(122,3)"/>
<path d="M0 0 C1.34780093 2.69560185 0.67336458 3.742617 -0.25 6.5625 C-0.50265625 7.36816406 -0.7553125 8.17382812 -1.015625 9.00390625 C-1.34046875 9.66261719 -1.6653125 10.32132813 -2 11 C-2.99 11.33 -3.98 11.66 -5 12 C-3.68938409 7.76570244 -2.05643741 3.92592596 0 0 Z " fill="#8EC07B" transform="translate(136,111)"/>
<path d="M0 0 C1.65 0 3.3 0 5 0 C3.68 0.33 2.36 0.66 1 1 C1.33 1.886875 1.66 2.77375 2 3.6875 C2.91222143 6.70923347 3.18330958 8.88373706 3 12 C1.09598862 10.09598862 0.06479561 8.66574314 -0.19921875 5.953125 C-0.1886578 3.96766727 -0.09915043 1.9830086 0 0 Z " fill="#81B96D" transform="translate(22,62)"/>
<path d="M0 0 C0.66 0 1.32 0 2 0 C4.29648649 2.5614657 5 3.47967572 5 7 C4.34 7 3.68 7 3 7 C3 6.34 3 5.68 3 5 C2.34 5 1.68 5 1 5 C1 4.34 1 3.68 1 3 C0.34 3 -0.32 3 -1 3 C-0.67 2.01 -0.34 1.02 0 0 Z " fill="#86AE75" transform="translate(31,176)"/>
<path d="M0 0 C5 7.5 5 7.5 5 11 C3.046875 10.2890625 3.046875 10.2890625 1 9 C0.390625 6.8359375 0.390625 6.8359375 0.25 4.375 C0.19328125 3.55773437 0.1365625 2.74046875 0.078125 1.8984375 C0.05234375 1.27195312 0.0265625 0.64546875 0 0 Z " fill="#81B86B" transform="translate(45,114)"/>
<path d="M0 0 C0.33 0 0.66 0 1 0 C1.625 2.875 1.625 2.875 2 6 C1.34 6.66 0.68 7.32 0 8 C-0.99 8 -1.98 8 -3 8 C-1.125 2.25 -1.125 2.25 0 0 Z " fill="#85BC72" transform="translate(141,100)"/>
<path d="M0 0 C0.33 0 0.66 0 1 0 C1 2.64 1 5.28 1 8 C-0.32 8.33 -1.64 8.66 -3 9 C-2.01 6.03 -1.02 3.06 0 0 Z " fill="#7CB866" transform="translate(145,91)"/>
<path d="M0 0 C1 2 1 2 0.44140625 4.1640625 C0.15136719 4.97617187 -0.13867188 5.78828125 -0.4375 6.625 C-0.72496094 7.44226563 -1.01242188 8.25953125 -1.30859375 9.1015625 C-1.53675781 9.72804688 -1.76492188 10.35453125 -2 11 C-2.66 11 -3.32 11 -4 11 C-3.39301257 6.87248551 -1.96189209 3.6678852 0 0 Z " fill="#9AC28D" transform="translate(11,57)"/>
<path d="M0 0 C0.66 0 1.32 0 2 0 C4.1875 2.8125 4.1875 2.8125 6 6 C5.67 6.99 5.34 7.98 5 9 C2.5 6.75 2.5 6.75 0 4 C0 2.68 0 1.36 0 0 Z " fill="#87B175" transform="translate(189,50)"/>
<path d="M0 0 C1.95582488 2.93373731 3.56224304 5.78216298 5 9 C4.67 9.66 4.34 10.32 4 11 C1 9 1 9 0.48828125 6.8359375 C0.43027344 6.02382812 0.37226562 5.21171875 0.3125 4.375 C0.24675781 3.55773437 0.18101563 2.74046875 0.11328125 1.8984375 C0.07589844 1.27195312 0.03851563 0.64546875 0 0 Z " fill="#89BF76" transform="translate(64,99)"/>
<path d="M0 0 C-2.55068845 2.35448165 -3.71017358 2.98327924 -7.25 3.1875 C-8.1575 3.125625 -9.065 3.06375 -10 3 C-8.0130571 -0.97388579 -3.91761109 -0.08705802 0 0 Z " fill="#DDF3D5" transform="translate(167,64)"/>
<path d="M0 0 C-0.66 1.98 -1.32 3.96 -2 6 C-2.99 5.67 -3.98 5.34 -5 5 C-4.625 3.0625 -4.625 3.0625 -4 1 C-2 0 -2 0 0 0 Z " fill="#74A763" transform="translate(195,151)"/>
<path d="M0 0 C2.64 0.66 5.28 1.32 8 2 C7.67 2.99 7.34 3.98 7 5 C7 4.34 7 3.68 7 3 C5.35 3.33 3.7 3.66 2 4 C1.34 2.68 0.68 1.36 0 0 Z " fill="#93C380" transform="translate(81,132)"/>
<path d="M0 0 C1.9375 0.5 1.9375 0.5 4 2 C4.68790422 4.69658452 4.81946464 7.2017019 5 10 C2.90217213 7.90217213 2.3490604 6.6200793 1.375 3.875 C1.11460938 3.15054688 0.85421875 2.42609375 0.5859375 1.6796875 C0.39257812 1.12539062 0.19921875 0.57109375 0 0 Z " fill="#E4F9DA" transform="translate(70,112)"/>
<path d="M0 0 C2 1 2 1 4 4 C4.33 4.99 4.66 5.98 5 7 C3.68 7 2.36 7 1 7 C0.67 4.69 0.34 2.38 0 0 Z " fill="#81BE6A" transform="translate(92,106)"/>
<path d="M0 0 C0.99 0.33 1.98 0.66 3 1 C3.3721042 2.32303717 3.70630173 3.65737935 4 5 C4.66 5.33 5.32 5.66 6 6 C5.34 6.66 4.68 7.32 4 8 C0 3.375 0 3.375 0 0 Z " fill="#7AB564" transform="translate(59,72)"/>
<path d="M0 0 C3.37462715 0.54723683 5.08235 1.0549 8 3 C5.08517222 3.80967438 3.53886783 4.21845993 0.6875 3.0625 C0.130625 2.711875 -0.42625 2.36125 -1 2 C-0.67 1.34 -0.34 0.68 0 0 Z " fill="#5F914E" transform="translate(63,198)"/>
<path d="M0 0 C0.6875 1.6875 0.6875 1.6875 1 4 C-0.3125 6.75 -0.3125 6.75 -2 9 C-2.66 9 -3.32 9 -4 9 C-2.80100302 5.9168649 -1.52299523 2.93720508 0 0 Z " fill="#81B66A" transform="translate(99,133)"/>
<path d="M0 0 C0.33 0.66 0.66 1.32 1 2 C1.66 2 2.32 2 3 2 C3 3.65 3 5.3 3 7 C2.01 7.495 2.01 7.495 1 8 C-0.35439668 5.29120665 -0.06501451 2.99066732 0 0 Z " fill="#83B571" transform="translate(2,123)"/>
<path d="M0 0 C2.15377564 2.62198774 3.40072174 4.64404172 4 8 C3.01 8.33 2.02 8.66 1 9 C0.67 6.03 0.34 3.06 0 0 Z " fill="#D6EFCD" transform="translate(73,100)"/>
<path d="M0 0 C0.97791242 2.64036353 1.03638105 3.87266632 0.25 6.625 C-1 9 -1 9 -4 11 C-2.95902388 7.13351728 -1.96301592 3.50538557 0 0 Z " fill="#DCF0D1" transform="translate(108,97)"/>
<path d="M0 0 C3 4 3 4 2.6875 7.25 C2.460625 8.1575 2.23375 9.065 2 10 C1.67 10 1.34 10 1 10 C0.67 6.7 0.34 3.4 0 0 Z " fill="#D6F3CA" transform="translate(97,97)"/>
<path d="M0 0 C0.66 0 1.32 0 2 0 C5.125 5.5 5.125 5.5 4 10 C2.68 6.7 1.36 3.4 0 0 Z " fill="#EAFBE6" transform="translate(62,94)"/>
</svg>
